HIERARCHY
ROOT Model
{
	OFFSET 0 0 0
	CHANNELS 6 Xposition Yposition Zposition Zrotation Xrotation Yrotation
	JOINT Model1
	{
		OFFSET 0 -2.25479 2.99384
		CHANNELS 3 Zrotation Xrotation Yrotation
		JOINT Model2
		{
			OFFSET 12.111 0 0
			CHANNELS 3 Zrotation Xrotation Yrotation
			JOINT Model3
			{
				OFFSET 11.5502 0 0
				CHANNELS 3 Zrotation Xrotation Yrotation
				JOINT Model4
				{
					OFFSET 11.781 0 0
					CHANNELS 3 Zrotation Xrotation Yrotation
					JOINT Model5
					{
						OFFSET 20.0601 0 0
						CHANNELS 3 Zrotation Xrotation Yrotation
						JOINT Model6
						{
							OFFSET 11.1962 0 0
							CHANNELS 3 Zrotation Xrotation Yrotation
							End Site
							{
								OFFSET 0 0 0
							}
						}
					}
					JOINT Model7
					{
						OFFSET 10.8223 0.417534 3.51114
						CHANNELS 3 Zrotation Xrotation Yrotation
						JOINT Model8
						{
							OFFSET -6.07944 0 0
							CHANNELS 3 Zrotation Xrotation Yrotation
							JOINT Model9
							{
								OFFSET -0.277405 10.39 -0.051239
								CHANNELS 3 Zrotation Xrotation Yrotation
								JOINT Model10
								{
									OFFSET -3.43909 -0.282043 1.86679
									CHANNELS 3 Zrotation Xrotation Yrotation
									JOINT Model11
									{
										OFFSET 13.0269 0 0
										CHANNELS 3 Zrotation Xrotation Yrotation
										JOINT Model12
										{
											OFFSET 10.8866 0 0
											CHANNELS 3 Zrotation Xrotation Yrotation
											JOINT Model13
											{
												OFFSET 16.7317 0 0
												CHANNELS 3 Zrotation Xrotation Yrotation
												JOINT Model14
												{
													OFFSET 11.8292 0 0
													CHANNELS 3 Zrotation Xrotation Yrotation
													JOINT Model15
													{
														OFFSET 4.82751 -3.73566 -0.836517
														CHANNELS 3 Zrotation Xrotation Yrotation
														JOINT Model16
														{
															OFFSET 3.75311 -0.0582886 -0.0186462
															CHANNELS 3 Zrotation Xrotation Yrotation
															JOINT Model17
															{
																OFFSET 2.88689 0.0192337 0.014801
																CHANNELS 3 Zrotation Xrotation Yrotation
																End Site
																{
																	OFFSET 0 0 0
																}
															}
														}
													}
													JOINT Model18
													{
														OFFSET 9.72197 -3.06458 0.23877
														CHANNELS 3 Zrotation Xrotation Yrotation
														JOINT Model19
														{
															OFFSET 4.61131 0 0
															CHANNELS 3 Zrotation Xrotation Yrotation
															JOINT Model20
															{
																OFFSET 2.8969 -7.62939e-006 0
																CHANNELS 3 Zrotation Xrotation Yrotation
																End Site
																{
																	OFFSET 0 0 0
																}
															}
														}
													}
													JOINT Model21
													{
														OFFSET 9.54431 -0.745064 0.588928
														CHANNELS 3 Zrotation Xrotation Yrotation
														JOINT Model22
														{
															OFFSET 5.33978 0 0
															CHANNELS 3 Zrotation Xrotation Yrotation
															JOINT Model23
															{
																OFFSET 3.03619 7.62939e-006 0
																CHANNELS 3 Zrotation Xrotation Yrotation
																End Site
																{
																	OFFSET 0 0 0
																}
															}
														}
													}
													JOINT Model24
													{
														OFFSET 9.47758 1.51286 0.485107
														CHANNELS 3 Zrotation Xrotation Yrotation
														JOINT Model25
														{
															OFFSET 4.96136 7.62939e-006 0
															CHANNELS 3 Zrotation Xrotation Yrotation
															JOINT Model26
															{
																OFFSET 2.51965 0 0
																CHANNELS 3 Zrotation Xrotation Yrotation
																End Site
																{
																	OFFSET 0 0 0
																}
															}
														}
													}
													JOINT Model27
													{
														OFFSET 9.34247 3.34117 -0.239288
														CHANNELS 3 Zrotation Xrotation Yrotation
														JOINT Model28
														{
															OFFSET 3.28259 2.28882e-005 0
															CHANNELS 3 Zrotation Xrotation Yrotation
															JOINT Model29
															{
																OFFSET 2.1292 0 0
																CHANNELS 3 Zrotation Xrotation Yrotation
																End Site
																{
																	OFFSET 0 0 0
																}
															}
														}
													}
												}
											}
										}
									}
								}
							}
						}
					}
					JOINT Model30
					{
						OFFSET 10.8223 0.4179 -3.51108
						CHANNELS 3 Zrotation Xrotation Yrotation
						JOINT Model31
						{
							OFFSET 6.07944 0 0
							CHANNELS 3 Zrotation Xrotation Yrotation
							JOINT Model32
							{
								OFFSET 0.277405 -10.39 0.051239
								CHANNELS 3 Zrotation Xrotation Yrotation
								JOINT Model33
								{
									OFFSET 3.43909 0.282043 -1.86679
									CHANNELS 3 Zrotation Xrotation Yrotation
									JOINT Model34
									{
										OFFSET -13.0269 0 0
										CHANNELS 3 Zrotation Xrotation Yrotation
										JOINT Model35
										{
											OFFSET -10.8866 0 0
											CHANNELS 3 Zrotation Xrotation Yrotation
											JOINT Model36
											{
												OFFSET -16.7317 0 0
												CHANNELS 3 Zrotation Xrotation Yrotation
												JOINT Model37
												{
													OFFSET -11.8292 0 0
													CHANNELS 3 Zrotation Xrotation Yrotation
													JOINT Model38
													{
														OFFSET -4.82751 3.73566 0.836517
														CHANNELS 3 Zrotation Xrotation Yrotation
														JOINT Model39
														{
															OFFSET -3.75311 0.0582886 0.0186462
															CHANNELS 3 Zrotation Xrotation Yrotation
															JOINT Model40
															{
																OFFSET -2.88687 -0.0192337 -0.014801
																CHANNELS 3 Zrotation Xrotation Yrotation
																End Site
																{
																	OFFSET 0 0 0
																}
															}
														}
													}
													JOINT Model41
													{
														OFFSET -9.72198 3.06459 -0.23877
														CHANNELS 3 Zrotation Xrotation Yrotation
														JOINT Model42
														{
															OFFSET -4.6113 0 0
															CHANNELS 3 Zrotation Xrotation Yrotation
															JOINT Model43
															{
																OFFSET -2.89691 0 0
																CHANNELS 3 Zrotation Xrotation Yrotation
																End Site
																{
																	OFFSET 0 0 0
																}
															}
														}
													}
													JOINT Model44
													{
														OFFSET -9.54431 0.745064 -0.588928
														CHANNELS 3 Zrotation Xrotation Yrotation
														JOINT Model45
														{
															OFFSET -5.33978 0 0
															CHANNELS 3 Zrotation Xrotation Yrotation
															JOINT Model46
															{
																OFFSET -3.03619 -1.52588e-005 0
																CHANNELS 3 Zrotation Xrotation Yrotation
																End Site
																{
																	OFFSET 0 0 0
																}
															}
														}
													}
													JOINT Model47
													{
														OFFSET -9.4776 -1.51286 -0.485107
														CHANNELS 3 Zrotation Xrotation Yrotation
														JOINT Model48
														{
															OFFSET -4.96136 -1.52588e-005 0
															CHANNELS 3 Zrotation Xrotation Yrotation
															JOINT Model49
															{
																OFFSET -2.51965 0 0
																CHANNELS 3 Zrotation Xrotation Yrotation
																End Site
																{
																	OFFSET 0 0 0
																}
															}
														}
													}
													JOINT Model50
													{
														OFFSET -9.34247 -3.34118 0.239288
														CHANNELS 3 Zrotation Xrotation Yrotation
														JOINT Model51
														{
															OFFSET -3.28259 -2.28882e-005 0
															CHANNELS 3 Zrotation Xrotation Yrotation
															JOINT Model52
															{
																OFFSET -2.12921 0 0
																CHANNELS 3 Zrotation Xrotation Yrotation
																End Site
																{
																	OFFSET 0 0 0
																}
															}
														}
													}
												}
											}
										}
									}
								}
							}
						}
					}
				}
			}
		}
	}
	JOINT Model53
	{
		OFFSET 4.38025 -2.14632 -1.11517
		CHANNELS 3 Zrotation Xrotation Yrotation
		JOINT Model54
		{
			OFFSET 0 0 4.94998
			CHANNELS 3 Zrotation Xrotation Yrotation
			JOINT Model55
			{
				OFFSET 18.5642 0 0
				CHANNELS 3 Zrotation Xrotation Yrotation
				JOINT Model56
				{
					OFFSET 21.2884 0 0
					CHANNELS 3 Zrotation Xrotation Yrotation
					JOINT Model57
					{
						OFFSET 30.261 0 0
						CHANNELS 3 Zrotation Xrotation Yrotation
						JOINT Model58
						{
							OFFSET 11.7259 0 0
							CHANNELS 3 Zrotation Xrotation Yrotation
							JOINT Model59
							{
								OFFSET 10.682 0 0
								CHANNELS 3 Zrotation Xrotation Yrotation
								End Site
								{
									OFFSET 0 0 0
								}
							}
						}
					}
				}
			}
		}
	}
	JOINT Model60
	{
		OFFSET -4.38025 -2.14632 -1.11517
		CHANNELS 3 Zrotation Xrotation Yrotation
		JOINT Model61
		{
			OFFSET 0 0 -4.94998
			CHANNELS 3 Zrotation Xrotation Yrotation
			JOINT Model62
			{
				OFFSET -18.5642 0 0
				CHANNELS 3 Zrotation Xrotation Yrotation
				JOINT Model63
				{
					OFFSET -21.2884 0 0
					CHANNELS 3 Zrotation Xrotation Yrotation
					JOINT Model64
					{
						OFFSET -30.261 0 0
						CHANNELS 3 Zrotation Xrotation Yrotation
						JOINT Model65
						{
							OFFSET -11.7259 0 0
							CHANNELS 3 Zrotation Xrotation Yrotation
							JOINT Model66
							{
								OFFSET -10.682 0 0
								CHANNELS 3 Zrotation Xrotation Yrotation
								End Site
								{
									OFFSET 0 0 0
								}
							}
						}
					}
				}
			}
		}
	}
}
MOTION
Frames: 5
Frame Time: 0.033333
-376.248 167.556 -404.843 32.9925 -43.8899 45.3796 -180 4.29621e-031 -90 3.0513 -2.52548 -1.84004 6.02885 -5.14464 -3.54811 6.02885 -5.1442 -3.54815 -14.7332 -2.25266 26.6529 22.4129 5.99442 -9.97115 120.092 75.5343 58.4939 8.5328 35.378 6.94286 -167.277 84.4999 48.8109 128.067 -1.36587 14.6547 -8.50239e-008 19.9795 3.16286e-005 -9.11779 -9.77087 -18.9836 9.30385e-008 -15.5976 -6.20115e-008 0.317446 0.0153006 5.51914 -72.0648 39.0385 39.3397 33.3638 2.10362 14.835 0.588947 0.308273 6.35287 -99.6409 81.413 100.35 -0.0181409 2.77662e-005 -0.117315 -0.124139 0.0024111 -0.799296 -79.8382 79.5773 80.5374 -0.000225774 -0.000220935 2.21547e-005 -0.000956223 0.000122878 -2.73745e-005 -66.7416 80.4058 67.2171 -0.000437131 1.59332e-005 -2.736e-005 -0.000136602 -0.000109308 -5.46948e-005 -6.42159 81.2158 8.01779 -0.000218568 1.68873e-005 0.000212101 0.000901582 -0.00018483 -0.000218619 -59.9282 75.5373 58.5147 -12.3225 4.26722 4.33062 -167.277 84.4999 48.8109 139.552 2.66139 42.5916 -9.0053e-006 28.7459 3.31932e-005 -82.1629 19.7945 0.640909 -6.46451e-006 29.1628 2.75253e-006 -10.1426 -0.289957 3.26647 -72.0648 39.0385 39.3397 33.3638 2.10361 14.835 0.588946 0.308273 6.35287 -99.6409 81.413 100.35 -0.0181409 3.0085e-005 -0.117315 -0.124139 0.00241114 -0.799296 -79.8382 79.5773 80.5374 -0.000260644 -0.000218558 2.36004e-005 -0.000956224 0.000123007 -2.72801e-005 -66.7416 80.4058 67.2171 -0.000437129 1.48884e-005 -2.72901e-005 -0.0001366 -0.000109273 -5.46e-005 -6.42159 81.2158 8.01779 -0.00021856 1.95795e-005 0.000212327 0.000901591 -0.000191244 -0.000218526 0.000811311 0.56661 89.91 -74.7888 -2.54607 -6.71242 3.84662e-007 -4.95011 -9.03674e-010 67.7667 4.09807 -0.00785831 -7.38247e-008 6.03414 -7.44147e-008 -75.1908 6.95436 -4.37831 -38.157 2.08278 -0.258542 -180 -0.566579 -90.09 -58.8244 0.609644 -7.38109 -9.52574e-007 1.19972 -3.54689e-008 72.903 -1.04043 -0.00766817 3.14533e-007 -1.67793 -2.2135e-007 -62.2798 -4.50152 2.00597 -55.3409 -6.58028 -3.23089 
-369.24 170.604 -397.277 31.0513 -46.7801 43.5738 -180 4.29621e-031 -90 2.95738 -2.48666 -1.43042 5.86015 -5.0436 -2.73435 5.86014 -5.04316 -2.73439 -11.5417 0.0424644 24.3914 26.6622 6.25634 -10.022 120.092 75.5343 58.4939 7.33714 33.4665 7.05048 -167.277 84.4999 48.8109 129.066 -3.26383 18.8128 1.03378e-006 18.0522 3.1264e-005 -9.54696 -4.95221 -18.797 1.0131e-007 -8.00787 -6.0316e-008 -1.45675 -0.0494191 3.8857 -72.0648 39.0385 39.3397 33.3638 2.10362 14.835 0.588947 0.308273 6.35287 -99.6409 81.413 100.35 -0.0181409 2.77662e-005 -0.117315 -0.124139 0.0024111 -0.799296 -79.8382 79.5773 80.5374 -0.000225774 -0.000220935 2.21547e-005 -0.000956223 0.000122878 -2.73745e-005 -66.7416 80.4058 67.2171 -0.000437131 1.59332e-005 -2.736e-005 -0.000136602 -0.000109308 -5.46948e-005 -6.42159 81.2158 8.01779 -0.000218568 1.68873e-005 0.000212101 0.000901582 -0.00018483 -0.000218619 -59.9282 75.5373 58.5147 -10.6034 5.34091 4.37717 -167.277 84.4999 48.8109 141.505 3.92356 43.7314 -9.79359e-006 29.9252 3.35794e-005 -82.6492 19.173 0.639208 -6.41398e-006 28.2362 2.72827e-006 -9.44644 -0.142467 1.72412 -72.0648 39.0385 39.3397 33.3638 2.10361 14.835 0.588946 0.308273 6.35287 -99.6409 81.413 100.35 -0.0181409 3.0085e-005 -0.117315 -0.124139 0.00241114 -0.799296 -79.8382 79.5773 80.5374 -0.000260644 -0.000218558 2.36004e-005 -0.000956224 0.000123007 -2.72801e-005 -66.7416 80.4058 67.2171 -0.000437129 1.48884e-005 -2.72901e-005 -0.0001366 -0.000109273 -5.46e-005 -6.42159 81.2158 8.01779 -0.00021856 1.95795e-005 0.000212327 0.000901591 -0.000191244 -0.000218526 0.000811311 0.56661 89.91 -62.2184 -3.92025 -7.13671 3.84646e-007 -5.91717 -9.05126e-010 61.0724 4.12254 -0.00743447 -7.3768e-008 6.07753 -7.44206e-008 -75.5108 5.95439 -3.90447 -42.3689 4.11104 -0.322491 -180 -0.566579 -90.09 -64.4724 1.09167 -3.40714 -9.52336e-007 1.58319 -3.54747e-008 66.8486 -0.883414 -0.00739194 3.15462e-007 -1.43757 -2.21325e-007 -64.7478 -6.26179 2.79989 -44.8884 -0.00164154 -0.671248 
-361.638 173.242 -389.198 30.0237 -50.8029 41.9314 -180 4.29621e-031 -90 3.00305 -2.26758 -0.952465 5.97509 -4.58213 -1.78677 5.97509 -4.5817 -1.78681 -3.86813 2.44566 20.8053 27.2653 5.89097 -10.1529 120.092 75.5343 58.4939 3.43574 31.1782 8.22605 -167.277 84.4999 48.8109 131.745 -3.03837 22.8107 5.39401e-007 18.9093 3.14207e-005 -8.22906 -2.47259 -18.7629 1.05463e-007 -4.06958 -5.98788e-008 -2.85632 -0.076228 3.0568 -72.0648 39.0385 39.3397 33.3638 2.10362 14.835 0.588947 0.308273 6.35287 -99.6409 81.413 100.35 -0.0181409 2.77662e-005 -0.117315 -0.124139 0.0024111 -0.799296 -79.8382 79.5773 80.5374 -0.000225774 -0.000220935 2.21547e-005 -0.000956223 0.000122878 -2.73745e-005 -66.7416 80.4058 67.2171 -0.000437131 1.59332e-005 -2.736e-005 -0.000136602 -0.000109308 -5.46948e-005 -6.42159 81.2158 8.01779 -0.000218568 1.68873e-005 0.000212101 0.000901582 -0.00018483 -0.000218619 -59.9282 75.5373 58.5147 -8.37705 6.82334 4.42509 -167.277 84.4999 48.8109 143.807 5.25193 45.3442 -1.05341e-005 31.0083 3.39549e-005 -82.1554 19.0779 0.638087 -6.40597e-006 28.0878 2.72449e-006 -9.40758 -0.110805 1.34655 -72.0648 39.0385 39.3397 33.3638 2.10361 14.835 0.588946 0.308273 6.35287 -99.6409 81.413 100.35 -0.0181409 3.0085e-005 -0.117315 -0.124139 0.00241114 -0.799296 -79.8382 79.5773 80.5374 -0.000260644 -0.000218558 2.36004e-005 -0.000956224 0.000123007 -2.72801e-005 -66.7416 80.4058 67.2171 -0.000437129 1.48884e-005 -2.72901e-005 -0.0001366 -0.000109273 -5.46e-005 -6.42159 81.2158 8.01779 -0.00021856 1.95795e-005 0.000212327 0.000901591 -0.000191244 -0.000218526 0.000811311 0.56661 89.91 -47.2778 -5.8598 -6.68583 3.84621e-007 -7.51699 -9.08108e-010 51.5363 4.79252 -0.00664923 -7.24366e-008 7.09479 -7.45734e-008 -70.6896 2.69095 -2.38571 -49.5269 8.92849 0.488735 -180 -0.566579 -90.09 -64.7949 0.545819 -1.14054 -9.52774e-007 0.875707 -3.54653e-008 54.4897 -1.48528 -0.00656748 3.12027e-007 -2.32627 -2.21438e-007 -65.2183 -8.78638 4.18902 -35.4947 -2.3864e-007 -1.62942e-007 
-353.722 174.858 -380.823 30.2912 -54.6486 40.2907 -180 4.29621e-031 -90 3.14566 -1.91554 -0.568971 6.27745 -3.8598 -1.03272 6.27745 -3.85936 -1.03277 8.27763 3.48089 16.8723 22.8502 4.46842 -10.9063 120.092 75.5343 58.4939 -1.25297 28.722 9.56378 -167.277 84.4999 48.8109 136.971 -4.79725 26.9165 2.33021e-006 15.765 3.08868e-005 -9.20473 1.04079 -18.5375 1.11221e-007 1.44732 -5.97469e-008 -3.5617 -0.126039 4.05209 -72.0648 39.0385 39.3397 33.3638 2.10362 14.835 0.588947 0.308273 6.35287 -99.6409 81.413 100.35 -0.0181409 2.77662e-005 -0.117315 -0.124139 0.0024111 -0.799296 -79.8382 79.5773 80.5374 -0.000225774 -0.000220935 2.21547e-005 -0.000956223 0.000122878 -2.73745e-005 -66.7416 80.4058 67.2171 -0.000437131 1.59332e-005 -2.736e-005 -0.000136602 -0.000109308 -5.46948e-005 -6.42159 81.2158 8.01779 -0.000218568 1.68873e-005 0.000212101 0.000901582 -0.00018483 -0.000218619 -59.9282 75.5373 58.5147 -6.30713 8.56006 4.54869 -167.277 84.4999 48.8109 146.773 6.74849 46.3265 -1.11331e-005 31.8666 3.42673e-005 -81.7751 19.6134 0.639559 -6.44936e-006 28.8867 2.74518e-006 -10.4977 -0.210387 2.28979 -72.0648 39.0385 39.3397 33.3638 2.10361 14.835 0.588946 0.308273 6.35287 -99.6409 81.413 100.35 -0.0181409 3.0085e-005 -0.117315 -0.124139 0.00241114 -0.799296 -79.8382 79.5773 80.5374 -0.000260644 -0.000218558 2.36004e-005 -0.000956224 0.000123007 -2.72801e-005 -66.7416 80.4058 67.2171 -0.000437129 1.48884e-005 -2.72901e-005 -0.0001366 -0.000109273 -5.46e-005 -6.42159 81.2158 8.01779 -0.00021856 1.95795e-005 0.000212327 0.000901591 -0.000191244 -0.000218526 0.000811311 0.56661 89.91 -32.8297 -6.64473 -3.54266 3.84604e-007 -8.56257 -9.10452e-010 42.3432 5.08295 -0.00570555 -7.18454e-008 7.54506 -7.46487e-008 -62.0908 -4.13071 1.79794 -56.3591 17.4634 3.56367 -180 -0.566579 -90.09 -61.2098 -0.463496 -1.34249 -9.53681e-007 -0.588518 -3.5463e-008 39.4178 -1.86339 0.019832 3.09925e-007 -2.86939 -2.21533e-007 -63.3472 -11.4896 6.04854 -35.4947 -2.67642e-006 -1.74185e-007 
-345.985 175.333 -372.582 32.5353 -57.2033 39.4288 -180 4.29621e-031 -90 3.34538 -1.399 -0.214327 6.68852 -2.80856 -0.346754 6.68852 -2.80812 -0.346805 20.7417 2.14464 12.5528 16.449 1.89375 -10.0194 120.092 75.5343 58.4939 -5.61174 25.2836 10.2615 -167.277 84.4999 48.8109 143.681 -7.70288 31.4833 5.606e-006 9.76544 3.0162e-005 -13.1792 6.04317 -16.8225 1.1935e-007 9.16618 -6.05004e-008 -3.45604 -0.169005 5.59753 -72.0648 39.0385 39.3397 33.3638 2.10362 14.835 0.588947 0.308273 6.35287 -99.6409 81.413 100.35 -0.0181409 2.77662e-005 -0.117315 -0.124139 0.0024111 -0.799296 -79.8382 79.5773 80.5374 -0.000225774 -0.000220935 2.21547e-005 -0.000956223 0.000122878 -2.73745e-005 -66.7416 80.4058 67.2171 -0.000437131 1.59332e-005 -2.736e-005 -0.000136602 -0.000109308 -5.46948e-005 -6.42159 81.2158 8.01779 -0.000218568 1.68873e-005 0.000212101 0.000901582 -0.00018483 -0.000218619 -59.9282 75.5373 58.5147 -4.06263 10.7642 4.72131 -167.277 84.4999 48.8109 150.082 8.18126 46.3092 -1.14855e-005 32.3644 3.44547e-005 -81.7884 20.9665 0.645164 -6.5627e-006 30.9165 2.80169e-006 -12.8197 -0.358365 3.18908 -72.0648 39.0385 39.3397 33.3638 2.10361 14.835 0.588946 0.308273 6.35287 -99.6409 81.413 100.35 -0.0181409 3.0085e-005 -0.117315 -0.124139 0.00241114 -0.799296 -79.8382 79.5773 80.5374 -0.000260644 -0.000218558 2.36004e-005 -0.000956224 0.000123007 -2.72801e-005 -66.7416 80.4058 67.2171 -0.000437129 1.48884e-005 -2.72901e-005 -0.0001366 -0.000109273 -5.46e-005 -6.42159 81.2158 8.01779 -0.00021856 1.95795e-005 0.000212327 0.000901591 -0.000191244 -0.000218526 0.000811311 0.56661 89.91 -23.6821 -5.55596 0.990335 3.84601e-007 -8.73256 -9.10863e-010 39.8553 4.32647 -0.00539604 -7.33272e-008 6.41473 -7.44686e-008 -55.7219 -10.2342 6.54523 -54.3295 25.9024 5.09211 -180 -0.566579 -90.09 -57.8255 0.405669 -3.02778 -9.52801e-007 0.833262 -3.54649e-008 31.0122 -3.89095 0.632311 2.9817e-007 -5.89489 -2.22432e-007 -60.9944 -10.3748 5.7637 -35.4947 -3.16791e-006 -2.26153e-007 
